<mxfile host="Electron" agent="Mozilla/5.0 (Windows NT 10.0; Win64; x64) AppleWebKit/537.36 (KHTML, like Gecko) draw.io/27.0.5 Chrome/134.0.6998.205 Electron/35.3.0 Safari/537.36" version="27.0.5">
  <diagram name="第 1 页" id="T9F7gAKvF-rqMI3GpTuX">
    <mxGraphModel dx="808" dy="-2944" grid="1" gridSize="10" guides="1" tooltips="1" connect="1" arrows="1" fold="1" page="1" pageScale="1" pageWidth="827" pageHeight="1169" math="0" shadow="0">
      <root>
        <mxCell id="0" />
        <mxCell id="1" parent="0" />
        <mxCell id="UxyPSngteQ98GF-ebpW_-1" value="" style="rounded=0;whiteSpace=wrap;html=1;strokeWidth=1;container=0;shadow=0;fillColor=#F4FAF2;" vertex="1" parent="1">
          <mxGeometry x="50" y="3780" width="320" height="150" as="geometry" />
        </mxCell>
        <mxCell id="UxyPSngteQ98GF-ebpW_-2" value="&lt;font face=&quot;Times New Roman&quot;&gt;&lt;b&gt;user thread&lt;/b&gt;&lt;/font&gt;" style="text;html=1;align=center;verticalAlign=middle;resizable=0;points=[];autosize=1;strokeColor=none;fillColor=none;fontSize=14;" vertex="1" parent="1">
          <mxGeometry x="160" y="3740" width="90" height="30" as="geometry" />
        </mxCell>
        <mxCell id="UxyPSngteQ98GF-ebpW_-5" value="&lt;font face=&quot;Times New Roman&quot;&gt;async fn ipc_call()&lt;/font&gt;" style="rounded=1;whiteSpace=wrap;html=1;fillColor=#FEF3D2;" vertex="1" parent="1">
          <mxGeometry x="239.45" y="3800" width="120" height="30" as="geometry" />
        </mxCell>
        <mxCell id="UxyPSngteQ98GF-ebpW_-6" value="" style="rounded=1;whiteSpace=wrap;html=1;fillColor=#FEDDC7;" vertex="1" parent="1">
          <mxGeometry x="69.99999999999999" y="3800" width="150" height="70" as="geometry" />
        </mxCell>
        <mxCell id="UxyPSngteQ98GF-ebpW_-7" value="&lt;font face=&quot;Times New Roman&quot;&gt;async fn reply_dispatcher()&lt;/font&gt;" style="rounded=1;whiteSpace=wrap;html=1;fillColor=#FEF3D2;" vertex="1" parent="1">
          <mxGeometry x="230" y="3860" width="110" height="35" as="geometry" />
        </mxCell>
        <mxCell id="UxyPSngteQ98GF-ebpW_-8" value="&lt;font face=&quot;Times New Roman&quot;&gt;Async Runtime&lt;/font&gt;" style="text;html=1;align=center;verticalAlign=middle;resizable=0;points=[];autosize=1;strokeColor=none;fillColor=none;" vertex="1" parent="1">
          <mxGeometry x="69.99999999999997" y="3800" width="100" height="30" as="geometry" />
        </mxCell>
        <mxCell id="UxyPSngteQ98GF-ebpW_-14" value="&lt;font face=&quot;Times New Roman&quot;&gt;syscall lib&lt;/font&gt;" style="shape=note;whiteSpace=wrap;html=1;backgroundOutline=1;darkOpacity=0.05;size=14;fillColor=#F2FFFE;" vertex="1" parent="1">
          <mxGeometry x="79.44999999999999" y="3830" width="80" height="40" as="geometry" />
        </mxCell>
        <mxCell id="UxyPSngteQ98GF-ebpW_-15" value="" style="rounded=0;whiteSpace=wrap;html=1;fillColor=#F2FFFE;" vertex="1" parent="1">
          <mxGeometry x="159.45" y="3830" width="50" height="10" as="geometry" />
        </mxCell>
        <mxCell id="UxyPSngteQ98GF-ebpW_-16" value="" style="rounded=0;whiteSpace=wrap;html=1;fillColor=#F2FFFE;" vertex="1" parent="1">
          <mxGeometry x="159.45" y="3840" width="50" height="10" as="geometry" />
        </mxCell>
        <mxCell id="UxyPSngteQ98GF-ebpW_-17" value="" style="rounded=0;whiteSpace=wrap;html=1;fillColor=#F2FFFE;" vertex="1" parent="1">
          <mxGeometry x="159.45" y="3850" width="50" height="10" as="geometry" />
        </mxCell>
        <mxCell id="UxyPSngteQ98GF-ebpW_-18" value="" style="rounded=0;whiteSpace=wrap;html=1;fillColor=#F2FFFE;" vertex="1" parent="1">
          <mxGeometry x="159.45" y="3860" width="50" height="10" as="geometry" />
        </mxCell>
        <mxCell id="UxyPSngteQ98GF-ebpW_-19" value="&lt;font style=&quot;font-size: 10px;&quot; face=&quot;Times New Roman&quot;&gt;Task Queue&lt;/font&gt;" style="text;html=1;align=center;verticalAlign=middle;resizable=0;points=[];autosize=1;strokeColor=none;fillColor=none;" vertex="1" parent="1">
          <mxGeometry x="150" y="3805" width="70" height="30" as="geometry" />
        </mxCell>
        <mxCell id="UxyPSngteQ98GF-ebpW_-45" style="edgeStyle=orthogonalEdgeStyle;rounded=0;orthogonalLoop=1;jettySize=auto;html=1;entryX=0.5;entryY=1;entryDx=0;entryDy=0;endArrow=blockThin;endFill=1;endSize=3;" edge="1" parent="1" source="UxyPSngteQ98GF-ebpW_-41" target="UxyPSngteQ98GF-ebpW_-7">
          <mxGeometry relative="1" as="geometry">
            <Array as="points">
              <mxPoint x="285" y="3950" />
              <mxPoint x="285" y="3950" />
            </Array>
          </mxGeometry>
        </mxCell>
        <mxCell id="UxyPSngteQ98GF-ebpW_-41" value="T A I C" style="rounded=0;whiteSpace=wrap;html=1;fillColor=#E4F4FA;" vertex="1" parent="1">
          <mxGeometry x="50" y="3960" width="770" height="40" as="geometry" />
        </mxCell>
        <mxCell id="UxyPSngteQ98GF-ebpW_-42" value="taic_driver" style="rounded=0;whiteSpace=wrap;html=1;fillColor=#E4F4FA;" vertex="1" parent="1">
          <mxGeometry x="80" y="3905" width="90" height="20" as="geometry" />
        </mxCell>
        <mxCell id="UxyPSngteQ98GF-ebpW_-43" value="taic_interface" style="rounded=0;whiteSpace=wrap;html=1;fillColor=#E4F4FA;" vertex="1" parent="1">
          <mxGeometry x="80" y="3880" width="90" height="20" as="geometry" />
        </mxCell>
        <mxCell id="UxyPSngteQ98GF-ebpW_-44" style="edgeStyle=orthogonalEdgeStyle;rounded=0;orthogonalLoop=1;jettySize=auto;html=1;entryX=0.176;entryY=-0.004;entryDx=0;entryDy=0;entryPerimeter=0;strokeWidth=1;endArrow=none;startFill=0;endFill=1;endSize=3;dashed=1;dashPattern=8 8;" edge="1" parent="1" source="UxyPSngteQ98GF-ebpW_-18" target="UxyPSngteQ98GF-ebpW_-41">
          <mxGeometry relative="1" as="geometry">
            <Array as="points">
              <mxPoint x="185" y="3915" />
              <mxPoint x="185" y="3915" />
              <mxPoint x="185" y="3961" />
              <mxPoint x="186" y="3961" />
            </Array>
          </mxGeometry>
        </mxCell>
        <mxCell id="UxyPSngteQ98GF-ebpW_-46" style="edgeStyle=orthogonalEdgeStyle;rounded=0;orthogonalLoop=1;jettySize=auto;html=1;entryX=0.381;entryY=1.014;entryDx=0;entryDy=0;entryPerimeter=0;endArrow=blockThin;endFill=1;endSize=3;" edge="1" parent="1" source="UxyPSngteQ98GF-ebpW_-7" target="UxyPSngteQ98GF-ebpW_-5">
          <mxGeometry relative="1" as="geometry" />
        </mxCell>
        <mxCell id="UxyPSngteQ98GF-ebpW_-47" style="edgeStyle=orthogonalEdgeStyle;rounded=0;orthogonalLoop=1;jettySize=auto;html=1;entryX=0.894;entryY=1.019;entryDx=0;entryDy=0;entryPerimeter=0;endArrow=blockThin;endFill=1;endSize=3;" edge="1" parent="1" source="UxyPSngteQ98GF-ebpW_-41" target="UxyPSngteQ98GF-ebpW_-5">
          <mxGeometry relative="1" as="geometry">
            <Array as="points">
              <mxPoint x="347" y="3930" />
              <mxPoint x="347" y="3930" />
            </Array>
          </mxGeometry>
        </mxCell>
        <mxCell id="UxyPSngteQ98GF-ebpW_-3" value="" style="rounded=0;whiteSpace=wrap;html=1;strokeWidth=1;container=0;shadow=0;fillColor=#F4FAF2;movable=1;resizable=1;rotatable=1;deletable=1;editable=1;locked=0;connectable=1;" vertex="1" parent="1">
          <mxGeometry x="500" y="3780" width="320" height="150" as="geometry" />
        </mxCell>
        <mxCell id="UxyPSngteQ98GF-ebpW_-4" value="&lt;font face=&quot;Times New Roman&quot;&gt;&lt;b&gt;kernel&lt;/b&gt;&lt;/font&gt;" style="text;html=1;align=center;verticalAlign=middle;resizable=0;points=[];autosize=1;strokeColor=none;fillColor=none;flipH=0;fontSize=14;" vertex="1" parent="1">
          <mxGeometry x="630" y="3740" width="60" height="30" as="geometry" />
        </mxCell>
        <mxCell id="UxyPSngteQ98GF-ebpW_-13" value="&lt;font face=&quot;Times New Roman&quot;&gt;async fn req_&lt;/font&gt;&lt;span style=&quot;font-family: &amp;quot;Times New Roman&amp;quot;;&quot;&gt;dispatcher&lt;/span&gt;&lt;font face=&quot;Times New Roman&quot;&gt;()&lt;/font&gt;" style="rounded=1;whiteSpace=wrap;html=1;fillColor=#FEF3D2;flipH=0;" vertex="1" parent="1">
          <mxGeometry x="510" y="3800" width="140" height="32.5" as="geometry" />
        </mxCell>
        <mxCell id="UxyPSngteQ98GF-ebpW_-69" value="" style="rounded=1;whiteSpace=wrap;html=1;fillColor=#FEDDC7;flipH=0;" vertex="1" parent="1">
          <mxGeometry x="656" y="3800" width="150" height="70" as="geometry" />
        </mxCell>
        <mxCell id="UxyPSngteQ98GF-ebpW_-70" value="&lt;font face=&quot;Times New Roman&quot;&gt;Async Runtime&lt;/font&gt;" style="text;html=1;align=center;verticalAlign=middle;resizable=0;points=[];autosize=1;strokeColor=none;fillColor=none;flipH=0;" vertex="1" parent="1">
          <mxGeometry x="706" y="3800" width="100" height="30" as="geometry" />
        </mxCell>
        <mxCell id="UxyPSngteQ98GF-ebpW_-71" value="&lt;font face=&quot;Times New Roman&quot;&gt;syscall handler&lt;/font&gt;" style="shape=note;whiteSpace=wrap;html=1;backgroundOutline=1;darkOpacity=0.05;size=14;fillColor=#F2FFFE;flipH=0;" vertex="1" parent="1">
          <mxGeometry x="716.55" y="3830" width="80" height="40" as="geometry" />
        </mxCell>
        <mxCell id="UxyPSngteQ98GF-ebpW_-72" value="" style="rounded=0;whiteSpace=wrap;html=1;fillColor=#F2FFFE;flipH=0;" vertex="1" parent="1">
          <mxGeometry x="666.55" y="3830" width="50" height="10" as="geometry" />
        </mxCell>
        <mxCell id="UxyPSngteQ98GF-ebpW_-73" value="" style="rounded=0;whiteSpace=wrap;html=1;fillColor=#F2FFFE;flipH=0;" vertex="1" parent="1">
          <mxGeometry x="666.55" y="3840" width="50" height="10" as="geometry" />
        </mxCell>
        <mxCell id="UxyPSngteQ98GF-ebpW_-74" value="" style="rounded=0;whiteSpace=wrap;html=1;fillColor=#F2FFFE;flipH=0;" vertex="1" parent="1">
          <mxGeometry x="666.55" y="3850" width="50" height="10" as="geometry" />
        </mxCell>
        <mxCell id="UxyPSngteQ98GF-ebpW_-75" value="" style="rounded=0;whiteSpace=wrap;html=1;fillColor=#F2FFFE;flipH=0;" vertex="1" parent="1">
          <mxGeometry x="666.55" y="3860" width="50" height="10" as="geometry" />
        </mxCell>
        <mxCell id="UxyPSngteQ98GF-ebpW_-76" value="&lt;font style=&quot;font-size: 10px;&quot; face=&quot;Times New Roman&quot;&gt;Task Queue&lt;/font&gt;" style="text;html=1;align=center;verticalAlign=middle;resizable=0;points=[];autosize=1;strokeColor=none;fillColor=none;flipH=0;" vertex="1" parent="1">
          <mxGeometry x="656" y="3805" width="70" height="30" as="geometry" />
        </mxCell>
        <mxCell id="UxyPSngteQ98GF-ebpW_-81" value="taic_driver" style="rounded=0;whiteSpace=wrap;html=1;fillColor=#E4F4FA;flipH=0;" vertex="1" parent="1">
          <mxGeometry x="706" y="3905" width="90" height="20" as="geometry" />
        </mxCell>
        <mxCell id="UxyPSngteQ98GF-ebpW_-82" value="taic_interface" style="rounded=0;whiteSpace=wrap;html=1;fillColor=#E4F4FA;flipH=0;" vertex="1" parent="1">
          <mxGeometry x="706" y="3880" width="90" height="20" as="geometry" />
        </mxCell>
        <mxCell id="UxyPSngteQ98GF-ebpW_-83" value="&lt;font face=&quot;Times New Roman&quot;&gt;async fn reply_dispatcher(&lt;/font&gt;&lt;span style=&quot;font-family: &amp;quot;Times New Roman&amp;quot;; background-color: transparent; color: light-dark(rgb(0, 0, 0), rgb(255, 255, 255));&quot;&gt;)&lt;/span&gt;" style="rounded=1;whiteSpace=wrap;html=1;fillColor=#FEF3D2;flipH=0;" vertex="1" parent="1">
          <mxGeometry x="540" y="3860" width="110" height="35" as="geometry" />
        </mxCell>
        <mxCell id="UxyPSngteQ98GF-ebpW_-88" style="edgeStyle=orthogonalEdgeStyle;rounded=0;orthogonalLoop=1;jettySize=auto;html=1;entryX=0.609;entryY=1.033;entryDx=0;entryDy=0;entryPerimeter=0;endArrow=blockThin;endFill=1;endSize=3;" edge="1" parent="1" source="UxyPSngteQ98GF-ebpW_-83" target="UxyPSngteQ98GF-ebpW_-13">
          <mxGeometry relative="1" as="geometry" />
        </mxCell>
        <mxCell id="UxyPSngteQ98GF-ebpW_-90" style="edgeStyle=orthogonalEdgeStyle;rounded=0;orthogonalLoop=1;jettySize=auto;html=1;entryX=0.201;entryY=0.019;entryDx=0;entryDy=0;entryPerimeter=0;strokeWidth=1;endArrow=none;startFill=0;endFill=1;endSize=3;dashed=1;dashPattern=8 8;" edge="1" parent="1">
          <mxGeometry relative="1" as="geometry">
            <mxPoint x="688.43" y="3870" as="sourcePoint" />
            <mxPoint x="689.43" y="3961" as="targetPoint" />
          </mxGeometry>
        </mxCell>
        <mxCell id="UxyPSngteQ98GF-ebpW_-91" value="IPC Buffer&amp;nbsp;&amp;nbsp;&lt;div&gt;&lt;br&gt;&lt;div&gt;Shared Memory&lt;/div&gt;&lt;/div&gt;" style="rounded=0;whiteSpace=wrap;html=1;fillColor=#E4F4FA;" vertex="1" parent="1">
          <mxGeometry x="380" y="3780" width="110" height="150" as="geometry" />
        </mxCell>
        <mxCell id="UxyPSngteQ98GF-ebpW_-92" style="edgeStyle=orthogonalEdgeStyle;rounded=0;orthogonalLoop=1;jettySize=auto;html=1;entryX=0.894;entryY=1.019;entryDx=0;entryDy=0;entryPerimeter=0;endArrow=blockThin;endFill=1;endSize=3;" edge="1" parent="1">
          <mxGeometry relative="1" as="geometry">
            <mxPoint x="530" y="3960" as="sourcePoint" />
            <mxPoint x="530" y="3831" as="targetPoint" />
            <Array as="points">
              <mxPoint x="530" y="3930" />
              <mxPoint x="530" y="3930" />
            </Array>
          </mxGeometry>
        </mxCell>
        <mxCell id="UxyPSngteQ98GF-ebpW_-93" style="edgeStyle=orthogonalEdgeStyle;rounded=0;orthogonalLoop=1;jettySize=auto;html=1;entryX=0.5;entryY=1;entryDx=0;entryDy=0;endArrow=blockThin;endFill=1;endSize=3;" edge="1" parent="1">
          <mxGeometry relative="1" as="geometry">
            <mxPoint x="594.6600000000001" y="3960" as="sourcePoint" />
            <mxPoint x="594.6600000000001" y="3895" as="targetPoint" />
            <Array as="points">
              <mxPoint x="594.6600000000001" y="3950" />
              <mxPoint x="594.6600000000001" y="3950" />
            </Array>
          </mxGeometry>
        </mxCell>
        <mxCell id="UxyPSngteQ98GF-ebpW_-94" value="" style="endArrow=classic;startArrow=classic;html=1;rounded=0;endSize=3;startSize=3;" edge="1" parent="1">
          <mxGeometry width="50" height="50" relative="1" as="geometry">
            <mxPoint x="353" y="3905" as="sourcePoint" />
            <mxPoint x="395" y="3905" as="targetPoint" />
          </mxGeometry>
        </mxCell>
        <mxCell id="UxyPSngteQ98GF-ebpW_-95" value="" style="endArrow=classic;startArrow=classic;html=1;rounded=0;endSize=3;startSize=3;" edge="1" parent="1">
          <mxGeometry width="50" height="50" relative="1" as="geometry">
            <mxPoint x="474" y="3904.77" as="sourcePoint" />
            <mxPoint x="516" y="3904.77" as="targetPoint" />
          </mxGeometry>
        </mxCell>
      </root>
    </mxGraphModel>
  </diagram>
</mxfile>
